<svg id="Calque_2" data-name="Calque 2" xmlns="http://www.w3.org/2000/svg" viewBox="0 0 127 125.76"><defs><style>.cls-1{fill:#403d3d;}.cls-2{fill:#ff4646;}.cls-3{fill:#707070;}.cls-4{fill:none;stroke:#707070;stroke-miterlimit:10;}</style></defs><path class="cls-1" d="M53.29,77.31V81.7a2.24,2.24,0,0,1-.43.09,3.64,3.64,0,0,1-.6,0,1.37,1.37,0,0,1-.9-.23,1,1,0,0,1-.27-.81V71.44l.43-.09a4,4,0,0,1,.59,0,1.55,1.55,0,0,1,.9.22,1,1,0,0,1,.28.82v3.48l4.07-4.47a1.7,1.7,0,0,1,1.17.33,1,1,0,0,1,.37.76,1.11,1.11,0,0,1-.18.63,4.32,4.32,0,0,1-.53.64l-2.86,2.84c.88.91,1.65,1.71,2.32,2.42s1.23,1.29,1.69,1.71a1.17,1.17,0,0,1-.36.88,1.23,1.23,0,0,1-.84.31,1.33,1.33,0,0,1-.83-.26,6.17,6.17,0,0,1-.66-.6Z"/><path class="cls-1" d="M60.69,71.3a1.14,1.14,0,0,1,.35-.83,1.18,1.18,0,0,1,.89-.35,1.15,1.15,0,0,1,.88.35,1.13,1.13,0,0,1,.34.83,1.17,1.17,0,0,1-.34.86,1.19,1.19,0,0,1-.88.35,1.21,1.21,0,0,1-.89-.35A1.18,1.18,0,0,1,60.69,71.3Zm.17,2.46.4-.09a3.45,3.45,0,0,1,.57,0,1.49,1.49,0,0,1,.89.22,1,1,0,0,1,.28.78V81.7l-.4.09a3.36,3.36,0,0,1-.57,0,1.51,1.51,0,0,1-.89-.22,1,1,0,0,1-.28-.78Z"/><path class="cls-1" d="M67.7,80a1.53,1.53,0,0,0,.92.23,2.86,2.86,0,0,0,.58-.06,5,5,0,0,0,.54-.17,1.12,1.12,0,0,1,.22.33.93.93,0,0,1,.1.45,1,1,0,0,1-.46.83,2.55,2.55,0,0,1-1.47.33,3.35,3.35,0,0,1-2.11-.6,2.38,2.38,0,0,1-.77-2V71.59l.4-.08a2.48,2.48,0,0,1,.56-.05,1.41,1.41,0,0,1,.88.22.94.94,0,0,1,.28.78v1.4h2.48a1.54,1.54,0,0,1,.16.36,1.72,1.72,0,0,1,.07.47.85.85,0,0,1-.21.64.7.7,0,0,1-.54.21h-2v3.69A.9.9,0,0,0,67.7,80Z"/><path class="cls-1" d="M78,79.45a2.17,2.17,0,0,1-.88,1.85,4.15,4.15,0,0,1-2.57.67,7,7,0,0,1-1.26-.1,3.91,3.91,0,0,1-1-.3,1.73,1.73,0,0,1-.65-.47,1,1,0,0,1-.23-.62,1,1,0,0,1,.15-.56,1.09,1.09,0,0,1,.38-.39,5,5,0,0,0,1.09.54,3.93,3.93,0,0,0,1.43.24,1.9,1.9,0,0,0,1-.23.71.71,0,0,0,.36-.63c0-.46-.34-.77-1-.92l-1-.22a3.94,3.94,0,0,1-1.85-.86,2,2,0,0,1-.6-1.54,2.17,2.17,0,0,1,.88-1.79,4,4,0,0,1,2.47-.68,6.64,6.64,0,0,1,1.13.09,3.46,3.46,0,0,1,.89.27,1.87,1.87,0,0,1,.6.42.87.87,0,0,1,.21.57,1.06,1.06,0,0,1-.14.54,1.25,1.25,0,0,1-.32.36,1.65,1.65,0,0,0-.4-.2,4.8,4.8,0,0,0-.54-.19,5.82,5.82,0,0,0-.63-.14A3.57,3.57,0,0,0,75,75.1a2.11,2.11,0,0,0-1,.21.65.65,0,0,0-.37.6.59.59,0,0,0,.21.47,1.67,1.67,0,0,0,.73.31l.83.2a4.31,4.31,0,0,1,2,.94A2.19,2.19,0,0,1,78,79.45Z"/><path class="cls-1" d="M87.06,80.79a1.24,1.24,0,0,1-.49.47,5.07,5.07,0,0,1-1.25.51,6.83,6.83,0,0,1-1.72.2A6.08,6.08,0,0,1,82,81.78a3.4,3.4,0,0,1-1.22-.6,2.7,2.7,0,0,1-.78-1,3.74,3.74,0,0,1-.27-1.49V73.73a1.92,1.92,0,0,1,.4-.1,3.57,3.57,0,0,1,.59,0,1.52,1.52,0,0,1,.88.21.93.93,0,0,1,.28.79v4a1.56,1.56,0,0,0,.45,1.26,2,2,0,0,0,1.28.38,3.26,3.26,0,0,0,.89-.1,2.14,2.14,0,0,0,.55-.22V73.73a1.76,1.76,0,0,1,.4-.1,3.32,3.32,0,0,1,.57,0,1.46,1.46,0,0,1,.88.21.93.93,0,0,1,.28.79v5.55A1.39,1.39,0,0,1,87.06,80.79Z"/><path class="cls-1" d="M94.23,75.49a1.71,1.71,0,0,0-1.13-.34,3.21,3.21,0,0,0-.9.12,3,3,0,0,0-.72.3V81.7l-.41.09a3.27,3.27,0,0,1-.57,0,1.48,1.48,0,0,1-.88-.22.91.91,0,0,1-.29-.78V75.4a1.12,1.12,0,0,1,.17-.66,1.77,1.77,0,0,1,.52-.49,4.47,4.47,0,0,1,1.31-.57,6.69,6.69,0,0,1,1.79-.23,4.23,4.23,0,0,1,2.7.77,2.75,2.75,0,0,1,1,2.27V81.7l-.4.09a3.36,3.36,0,0,1-.57,0,1.51,1.51,0,0,1-.89-.22,1,1,0,0,1-.28-.78V76.55A1.27,1.27,0,0,0,94.23,75.49Z"/><path class="cls-1" d="M100.67,78.67a2,2,0,0,0,.88,1.25,3,3,0,0,0,1.59.39,4,4,0,0,0,1.32-.21,4.67,4.67,0,0,0,1-.45,1.15,1.15,0,0,1,.39.37,1,1,0,0,1,.15.51.84.84,0,0,1-.23.6,1.75,1.75,0,0,1-.62.45,3.85,3.85,0,0,1-.94.29A6.15,6.15,0,0,1,103,82a5.8,5.8,0,0,1-1.82-.27,3.67,3.67,0,0,1-1.41-.82,3.83,3.83,0,0,1-.91-1.36,5.08,5.08,0,0,1-.33-1.9,4.87,4.87,0,0,1,.32-1.83,3.76,3.76,0,0,1,.87-1.3,3.59,3.59,0,0,1,1.28-.78,4.65,4.65,0,0,1,1.54-.26,4.24,4.24,0,0,1,1.53.27,3.44,3.44,0,0,1,1.18.72,3.35,3.35,0,0,1,.77,1.12,3.53,3.53,0,0,1,.28,1.42,1,1,0,0,1-.24.71,1.22,1.22,0,0,1-.69.3Zm1.88-3.61a2,2,0,0,0-1.39.55,2.32,2.32,0,0,0-.62,1.57l3.76-.56a1.87,1.87,0,0,0-.5-1.09A1.61,1.61,0,0,0,102.55,75.06Z"/><path class="cls-2" d="M23.85,23.67l-2.82.5S4,25.5,5.72,31.69c.36,2.75,3.88,4.37,6.44,5.06,5.16,1.38,6.56,2.59,11.78,2.36a6.88,6.88,0,0,1-1.33,2.35c-6.19,5.41-11.89,12-15.42,19.42C4.5,66.56,3.16,73,4.31,79.2A30.13,30.13,0,0,0,13,94.64,65.8,65.8,0,0,0,28.4,105.57c21.13,11,41.68,16,65.27,11.65,6.65-1.24,13.14-2.85,18.65-7a30.51,30.51,0,0,0,9.2-11.3c4.17-9,3.72-19.53,1.14-29.09-1.84-6.84-4.94-13.69-10.58-18S92.5,47.64,87.72,53.64c5.44-.36,11.49,3.12,15.94,5.9,11.49,7.18,13.49,21.93,6,32.93C98.2,109.21,71,105.09,55.92,96.36c-7.4-4.3-14.14-11.16-15.39-20-.8-5.68.8-11.32,2.87-16.55,2-5.05,3.75-9.79,2.51-15.3a21.35,21.35,0,0,1-.67-3.33c-.18-2.76,1.38-5.83,1.82-8.58,1.06-6.58,7-14.15,1.83-21.16.89-2-.8-3.09-1.93-3.59a1.41,1.41,0,0,0-1.56.27l-8.11,8s-6.61-.8-13.44,7.56c-2.49,2.4-5.05,3.58-4.23,6s5.24,7.17,11.15,8.2A2.74,2.74,0,0,0,32,37.78a35.75,35.75,0,0,1,6.38-1.11"/><path class="cls-3" d="M23.93,24.17c-5.35,1-11.32,1-16,4C4.7,30.2,6.26,33.59,9.2,35a26.78,26.78,0,0,0,4.74,1.82c3.22,1.23,6.47,2.69,10,2.2h0a9.74,9.74,0,0,1-.64,2.1c-1.2,1.81-2.86,2.93-4.28,4.51C9.93,55,1.5,68.29,5.58,81.73,11,97.67,27.93,105.22,42.41,111.32a91.36,91.36,0,0,0,48.09,5.84c5.37-.84,10.79-1.88,15.73-4,10-4.3,16.81-14.4,17.66-25.22.84-10.45-1.57-22.3-7.58-31a20.07,20.07,0,0,0-5.78-5.44,19.46,19.46,0,0,0-7.69-2c-5.11-.29-11.22.47-14.74,4.51l-.41-.79c4.47-.21,8.64,1.68,12.46,3.77s7.59,4.53,10.12,8.15c8.11,10.89,3.88,27.58-7.46,34.48C86.18,110,55,102.09,44.12,86.07c-5.34-7.46-4.74-16.74-1.45-24.89,1.53-4,3.28-8,3.61-12.31.44-3.3-1.61-6.33-1.08-9.6.32-2.14,1.16-4.16,1.56-6.27a22,22,0,0,1,.71-3.17c1.78-5.77,5.38-12.61,1-18.06l-.17-.21.11-.27C49.06,10,48.14,9,46.94,8.44a.92.92,0,0,0-1.2.11c-1.11,1.12-6.83,6.7-8.07,7.94l-.17.17-.27,0C32,16.55,27.47,20.2,24.29,24c-.92.92-2,1.71-2.87,2.53s-1.6,1.7-1.33,2.67a5.07,5.07,0,0,0,.7,1.5,16.05,16.05,0,0,0,10.29,6.69,26.26,26.26,0,0,1,7.34-.75c-1.69.45-4.68,1-6.31,1.6-4.39.58-9.92-3.44-12.27-6.92-2.83-3.78,1.4-6,3.57-8a21.58,21.58,0,0,1,9.79-7.15,11.22,11.22,0,0,1,4.16-.59l-.45.15,6.33-6.17L44.83,8a2,2,0,0,1,1.91-.72c1.88.5,3.62,2.36,2.6,4.39l-.06-.49C53.73,17,50,24.08,48,30c-.66,2-.91,4.23-1.65,6.24s-1.26,4.14-.83,6.26a26.53,26.53,0,0,1,.82,6.39c.05,4.36-1.75,8.46-3.28,12.45a34.15,34.15,0,0,0-2.49,12.51c.38,13.45,12.95,22.45,24.65,26.43,11.86,4,26.11,5.5,37.2-1.34,10.92-6.69,15-22.85,7.15-33.33-2.49-3.52-6.13-5.82-9.86-7.86-4-2.2-8.45-4.07-13.06-3.54l.7-.86c3.82-4.42,10.1-5.19,15.58-4.91a17.66,17.66,0,0,1,14.22,7.87c8.68,12.52,11.53,34.44,2.29,47.29-6.62,9.82-17.63,13.15-28.76,14.69C68.68,122,46.31,116,27,105.51,17.44,100.22,7.78,93,4.4,82.09c-4.2-13.89,4-27.9,13.74-37.33a37.42,37.42,0,0,1,4.63-4,8.7,8.7,0,0,0,1.17-1.7c-3.17.47-7-.63-10.22-1.47S6,35.66,5.21,31.76C4,25.5,16.68,24.19,20.94,23.67l2.82-.49.17,1Z"/><path class="cls-3" d="M45.38,42.25c-3.13,2.58-6.68,4.69-9.33,7.75a15.83,15.83,0,0,1,8.22-4,21.27,21.27,0,0,0-8.88,7.77,23.49,23.49,0,0,1,9.2-4.3,29.53,29.53,0,0,0-11.36,8.17,20.56,20.56,0,0,1,9-3.48,41.58,41.58,0,0,0-10.57,9.44,81,81,0,0,1,10.3-4.69A24.34,24.34,0,0,0,32.74,69a38.9,38.9,0,0,1,7.9-4.81A21.57,21.57,0,0,0,33.56,75.4a17.54,17.54,0,0,1,6.55-5.12A20.06,20.06,0,0,0,36,83.37c1.64-1.61,2.46-2,4.1-3.62-2.73,4.08-2.6,8.25-1,12.89A9.29,9.29,0,0,1,44,86.14a14.37,14.37,0,0,0-.64,10.93A17.32,17.32,0,0,1,48,91.82a12.44,12.44,0,0,0-.69,9.09c3.21-7.62,6.38-6,6.44-6S35.58,83.77,41.41,65.73c.75-2.32,2.47-6.51,3.55-10.1C45.55,54.3,47.37,47.88,45.38,42.25Z"/><path class="cls-3" d="M41.41,65.73c.52-2.37,2.21-6.45,3.55-10.1"/><path class="cls-3" d="M53.33,94.64s-3.28,4.66-1.42,8.47c2-5.89,5.2-6.22,5.2-6.22s-.59,4.34,1.44,6.08c0-3.48,1.11-4.61,1.11-4.61s.62,3.79,2.47,5c-.26-2.61.34-3.23,1-3.78A47.78,47.78,0,0,1,53.33,94.64Z"/><path class="cls-3" d="M96.4,49.32a28.44,28.44,0,0,1,9.52.08A7,7,0,0,1,108,50a5.12,5.12,0,0,1,2.38,3,14.77,14.77,0,0,1,.54,3.92,12.37,12.37,0,0,0-2.69-4.79,13.33,13.33,0,0,1,.88,6.31,24.35,24.35,0,0,0-3.2-5.13,12.69,12.69,0,0,1,1,6.88,13.61,13.61,0,0,0-4-5.26A15.91,15.91,0,0,1,105,60.46c-.51-.89-3.65-2.24-5.44-3.32a37.68,37.68,0,0,0-4.19-2,21.32,21.32,0,0,0-2.77-1A11.67,11.67,0,0,0,89,53.5C85.79,53.42,95.39,49.5,96.4,49.32Z"/><path class="cls-3" d="M35.7,20.88c-1.54,1.95-1.85,4.58-2.1,7.05.6-1.21,1.87-2,2.49-3.18a5.76,5.76,0,0,0,.48-1.47,2.5,2.5,0,0,0-.08-1.79"/><path class="cls-3" d="M32.79,34.6a3.61,3.61,0,0,1-2.39-.84l-1.28-.83A7.47,7.47,0,0,1,28,32.06c-.84-.86-1.73-6,.05-5.19.83.36,1.83,2.91,2.31,3.7Q31.57,32.58,32.79,34.6Z"/><path class="cls-3" d="M10.47,29.32a3.06,3.06,0,0,0-1,2.49,2.64,2.64,0,0,0,1.13,1.7,7.09,7.09,0,0,0,1.89.88,40.75,40.75,0,0,0,4.33,1.18.53.53,0,0,0,.33,0,.39.39,0,0,0,.16-.25c.41-1.18-.14-2.45-.3-3.69-.18-1.4.59-4.07-1.33-4.44C14,26.85,11.58,28.19,10.47,29.32Z"/><path class="cls-4" d="M43.52,10.08s3.42,3.67,5.75.5"/></svg>